<?xml version="1.0" encoding="UTF-8"?>
<svg id="Layer_1" xmlns="http://www.w3.org/2000/svg" version="1.1" viewBox="0 0 16 16">
  <!-- Generator: Adobe Illustrator 29.2.1, SVG Export Plug-In . SVG Version: 2.1.0 Build 116)  -->
  <defs>
    <style>
      .st0 {
        fill: #f58220;
      }

      .st1 {
        fill: #fff;
      }
    </style>
  </defs>
  <circle class="st0" cx="8" cy="8" r="8"/>
  <path class="st1" d="M14.21,7.24c-.12-.12-.24-.19-.35-.25-.05-.56-.18-1.43-.55-2.15-.37-.71-.71-1.38-1.72-1.91-.83-.43-1.92-.61-3.21-.54-.87.05-1.89.23-2.87,1.07,0,0-.02,0-.02.01,0,0-.06.05-.14.13-.06.05-.11.09-.16.15-.67.68-1.33,1.93-1.59,2.75-.23.75-.26,1.26-.29,1.74-.32.16-.95.49-1.24.73-.56.46-.77,1.05-.57,1.61.23.69,2.16,1.71,2.85,1.9.49.14,1.02.2,1.55.2.26,0,.53-.02.79-.05.77-.1,2.62-.66,3.69-1.17.83-.4,3.67-2.04,4.05-2.71.29-.52.21-1.09-.22-1.51h.02ZM8.42,3.08c.43-.03.82-.01,1.19.03-1,.13-1.5.47-1.84.7l-.08.05c-.59.39-1.1,1.33-1.26,1.83-.1.31-.26.43-.3.44-.06,0-.12-.03-.25-.08-.1-.04-.22-.09-.38-.14-.05-.02-.13-.19-.1-.61.06-.68.3-1.05.44-1.2.87-.8,1.75-.97,2.59-1.02h0ZM4.27,6.7c.09-.3.25-.67.45-1.04.05.64.37.85.58.91.14.04.24.09.33.12.17.07.31.12.5.12.4,0,.79-.37.96-.92.13-.42.58-1.2.99-1.47l.08-.06c.47-.32,1.19-.81,3.43-.58.02,0,.04,0,.06,0,.53.38.77.83,1.05,1.38.41.8.49,1.91.5,2.23.02.39-.13.51-.62.88l-.21.16c-.56.43-2.47,1.25-3.73,1.31-1.31.06-2.19-.05-3.14-.37-.88-.29-1.47-1.02-1.48-1.03,0,0-.01-.01-.02-.02.03-.48.05-.92.26-1.61h0ZM13.83,8.41c-.21.38-2.54,1.85-3.75,2.43-1,.48-2.78,1.02-3.48,1.11-.7.09-1.42.05-2.07-.13-.73-.2-2.26-1.14-2.37-1.46-.1-.29.02-.58.36-.86.22-.18.74-.46,1.07-.63.23.25.84.84,1.7,1.13,1.03.35,2.01.46,3.39.4,1.46-.07,3.49-.97,4.12-1.44l.2-.15c.38-.28.72-.53.84-.97.11.18.11.37,0,.56h0Z"/>
</svg>