<?xml version="1.0" encoding="UTF-8"?>
<svg id="Layer_1" xmlns="http://www.w3.org/2000/svg" version="1.1" viewBox="0 0 26.77 21.74">
  <!-- Generator: Adobe Illustrator 29.2.1, SVG Export Plug-In . SVG Version: 2.1.0 Build 116)  -->
  <defs>
    <style>
      .st0 {
        fill: #f58220;
      }
    </style>
  </defs>
  <path class="st0" d="M25.92,20.05h-3.38v-10.71l2.86,2.29c.37.29.9.24,1.2-.13.29-.37.24-.91-.13-1.2L13.84.17s-.06-.03-.11-.05l-.09-.06c-.09-.04-.2-.05-.32-.06-.09,0-.19.02-.3.06-.03.01-.06.03-.08.04l-.06.03s-.07.03-.1.06L.31,10.31c-.18.14-.29.34-.31.57-.02.23.04.45.18.62.27.35.85.41,1.19.13l2.66-2.16v10.59H.85c-.22,0-.45.08-.61.24-.16.16-.25.37-.25.6,0,.47.38.84.84.84h25.08c.47,0,.84-.38.84-.84s-.38-.84-.84-.84ZM19.76,7.11h-4.44l2.22-1.78,2.22,1.78ZM14.17,2.62l2.02,1.62-2.02,1.62v-3.23ZM12.47,2.63v3.27l-2.03-1.63,2.03-1.64ZM9.1,5.38l2.16,1.73h-4.3l2.14-1.73ZM20.84,20.04H5.74v-11.23h15.1v11.23Z"/>
</svg>