<?xml version="1.0" encoding="UTF-8"?>
<svg id="Layer_1" data-name="Layer 1" xmlns="http://www.w3.org/2000/svg" viewBox="0 0 25.83 20.31">
  <defs>
    <style>
      .cls-1 {
        fill: #f58220;
      }
    </style>
  </defs>
  <path class="cls-1" d="M25.15,9.56c-.23-.23-.48-.38-.69-.49-.1-1.1-.36-2.82-1.09-4.23-.72-1.39-1.4-2.71-3.39-3.75C18.34.24,16.21-.12,13.67.03c-1.72.1-3.71.45-5.65,2.11-.01,0-.03,0-.04.02-.01.01-.12.1-.27.26-.11.1-.21.18-.32.29-1.32,1.34-2.62,3.8-3.12,5.41-.46,1.48-.52,2.47-.58,3.43-.62.31-1.86.96-2.45,1.44-1.1.9-1.51,2.06-1.13,3.17.46,1.36,4.25,3.37,5.6,3.73.97.27,2.01.4,3.05.4.52,0,1.04-.03,1.55-.1,1.51-.2,5.16-1.29,7.26-2.3,1.64-.78,7.23-4.01,7.97-5.34.57-1.02.41-2.14-.43-2.98ZM13.75,1.38c.84-.05,1.61-.02,2.34.05-1.97.26-2.95.92-3.62,1.37l-.16.1c-1.16.77-2.17,2.61-2.48,3.61-.19.61-.52.85-.6.87-.11,0-.23-.05-.49-.15-.2-.08-.43-.17-.74-.27-.09-.03-.26-.37-.19-1.21.11-1.34.6-2.07.86-2.37,1.71-1.58,3.45-1.91,5.09-2ZM5.58,8.51c.18-.59.49-1.32.88-2.05.1,1.26.72,1.68,1.14,1.8.27.08.48.17.65.23.33.13.61.24.99.24.79,0,1.55-.73,1.89-1.81.26-.82,1.15-2.36,1.94-2.89l.16-.11c.93-.63,2.34-1.59,6.76-1.15.04,0,.08,0,.12-.01,1.05.75,1.51,1.63,2.07,2.71.81,1.57.96,3.75.98,4.38.03.77-.25,1.01-1.22,1.73l-.41.31c-1.1.84-4.87,2.46-7.34,2.57-2.58.12-4.31-.09-6.18-.72-1.73-.58-2.9-2.01-2.91-2.02-.01-.01-.02-.02-.03-.04.05-.94.1-1.82.52-3.17ZM24.4,11.88c-.42.74-5,3.65-7.38,4.79-1.97.94-5.47,2-6.85,2.18-1.38.18-2.79.09-4.08-.26-1.43-.39-4.44-2.24-4.67-2.87-.2-.58.04-1.15.71-1.7.43-.35,1.45-.9,2.11-1.23.45.49,1.66,1.66,3.34,2.23,2.02.68,3.95.9,6.67.79,2.87-.13,6.87-1.91,8.1-2.84l.4-.29c.74-.55,1.41-1.04,1.66-1.9.22.35.22.72,0,1.11Z"/>
  <path class="cls-1" d="M12.24,12.85h0c.37,0,.67-.31.67-.68,0-.56.04-2.2.3-3.07.31-1,1.24-2.29,2.64-2.92,1.27-.57,2.32-.71,3.79-.9l.93-.13c.37-.05.63-.39.57-.76-.05-.37-.4-.63-.76-.57l-.91.12c-1.52.2-2.71.36-4.16,1.01-1.91.86-3.01,2.56-3.38,3.76-.38,1.24-.36,3.38-.36,3.48,0,.37.31.67.67.67Z"/>
</svg>