<?xml version="1.0" encoding="UTF-8"?>
<svg id="Layer_1" data-name="Layer 1" xmlns="http://www.w3.org/2000/svg" viewBox="0 0 28.12 20.01">
  <defs>
    <style>
      .cls-1 {
        fill: #f58220;
      }
    </style>
  </defs>
  <path class="cls-1" d="M28.11,17.27s0-.03,0-.05c0-.03,0-.05,0-.08L23.94.51c-.08-.3-.35-.51-.65-.51H4.82c-.31,0-.58.21-.65.51L.02,17.15c-.01.06-.02.11-.02.17l.02,2.02c0,.22.11.43.3.55.18.12.42.15.62.07l3.06-1.2,3.21,1.2c.16.06.33.06.48,0l3.05-1.2,3.06,1.2c.16.06.33.06.48,0l3.18-1.2,3.05,1.2c.16.06.33.06.49,0l3.09-1.2,3.09,1.2c.08.03.16.05.24.05.13,0,.27-.04.38-.12.18-.13.29-.33.29-.56v-2.02s0-.02,0-.04ZM4.02,6.67l2.08-.85,1.89.66-.46,4.06-2.26-.8c-.15-.05-.32-.05-.47,0l-1.72.67.93-3.75ZM25.03,10.43l-1.77-.68c-.15-.06-.31-.06-.47,0l-2.25.79-.46-4.05,1.97-.67,2.01.77.96,3.85ZM9.35,6.52l2.11-.71,1.91.68v4l-2.1-.75c-.15-.05-.31-.05-.46,0l-1.91.7.45-3.92ZM14.73,6.5l1.94-.69,2.06.7.45,3.92-1.85-.69c-.15-.06-.31-.06-.46,0l-2.13.76v-4ZM18.56,5.03l-1.68-.57c-.14-.05-.3-.05-.44,0l-1.71.61V1.35h3.42l.42,3.68ZM13.38,5.06l-1.68-.6c-.14-.05-.3-.05-.44,0l-1.74.58.42-3.69h3.44v3.71ZM2.69,12.02l2.38-.92,2.31.82-.51,4.52-2.68-.85c-.14-.04-.29-.04-.43,0l-2.15.75,1.08-4.33ZM8.73,11.95l2.32-.85,2.32.83v4.44l-2.33-.78c-.13-.04-.28-.05-.42,0l-2.39.75.5-4.39ZM14.73,11.94l2.35-.84,2.27.85.5,4.36-2.1-.71c-.13-.05-.28-.05-.42,0l-2.6.81v-4.46ZM21.22,16.44l-.51-4.52,2.31-.82,2.42.93,1.06,4.26-2.15-.7c-.13-.04-.28-.05-.41,0l-2.71.85ZM23.67,4.99l-1.36-.52c-.15-.05-.31-.06-.46,0l-1.92.65-.43-3.76h3.26l.91,3.64ZM5.35,1.35h3.23l-.43,3.75-1.84-.64c-.16-.05-.32-.05-.48.01l-1.41.57.92-3.7ZM24.35,17.41c-.16-.06-.33-.06-.49,0l-3.09,1.2-3.05-1.2c-.16-.06-.33-.06-.49,0l-3.18,1.2-3.06-1.2c-.16-.06-.33-.06-.49,0l-3.05,1.2-3.21-1.2c-.08-.03-.16-.04-.24-.04s-.17.02-.25.05l-2.39.94v-.48s2.63-.92,2.63-.92l3.19,1.01c.13.04.27.04.4,0l3.23-1.01,3.02,1.01c.13.04.28.05.41,0l3.25-1.01,2.96,1c.14.05.28.05.42,0l3.24-1.01,2.64.86v.55l-2.42-.94Z"/>
</svg>