<?xml version="1.0" encoding="UTF-8"?>
<svg id="Layer_1" xmlns="http://www.w3.org/2000/svg" version="1.1" viewBox="0 0 23.45 25.12">
  <!-- Generator: Adobe Illustrator 29.2.1, SVG Export Plug-In . SVG Version: 2.1.0 Build 116)  -->
  <defs>
    <style>
      .st0 {
        fill: #f58220;
      }
    </style>
  </defs>
  <path class="st0" d="M23.03,6.54v-.03c0-.08-.03-.16-.08-.23h0c-.09-.16-.24-.28-.45-.35L4.48.06c-.24-.08-.51-.07-.75.02l-1.42.55h0c-.2.08-.34.21-.42.36q-.05.1,0,0c.08-.15,0,0,0,0,0,0,0,.02-.01.04t0,0s0,0,0,0h0s-.01.05-.03.07L.18,7.65c-.08.31.14.63.53.75l.5.16-1.21,4.56c-.08.32.13.63.53.76l.74.23-1.26,4.48c-.09.32.13.64.53.77l18.17,5.72h.03c.09.03.2.05.3.05.09,0,.18-.01.28-.03l1.64-.42c.37-.09.6-.35.6-.64v-.23l1.18-.19c.42-.07.71-.35.71-.67l-.42-16.39v-.02ZM21.39,11.53l-.85.29.77-3.16.08,2.87ZM21.43,13.29l.09,3.63-1.06.33.97-3.96ZM3.37,2.16l16.45,5.2-1.29,5.23L2.06,7.37l1.31-5.2h0ZM18.87,14.16c.11.04.22.05.34.05.07,0,.13-.03.2-.04l-.96,3.92L1.89,12.84l1-3.75,15.99,5.07h-.01ZM2.93,14.63l15.85,5.02c.11.04.22.05.34.05.09,0,.17-.03.26-.05l-1.01,3.86L1.89,18.32s1.04-3.69,1.04-3.69ZM20.5,22.59s-.05.02-.07.02l1.1-4.24h.03l.11,4.03s-1.17.19-1.17.19Z"/>
</svg>