<?xml version="1.0" encoding="UTF-8"?>
<svg id="Layer_1__x28_1:1_x29_" xmlns="http://www.w3.org/2000/svg" version="1.1" viewBox="0 0 203.03 157.56">
  <!-- Generator: Adobe Illustrator 29.2.1, SVG Export Plug-In . SVG Version: 2.1.0 Build 116)  -->
  <defs>
    <style>
      .st0 {
        fill: #f58220;
      }

      .st1 {
        fill: #fff;
      }
    </style>
  </defs>
  <g>
    <path class="st0" d="M129.39,88.26h-6.84l-47.83-60.93-1.93,2.25c-2.58-1.87-5.05-3.14-9.45-3.22-.35,0-.69,0-1.02.01l9.56-11.14,57.51,73.04ZM67.09,36.15c.05-.09.12-.2.16-.29-.34-.5-1.51-1.77-3.23-2.5-1.58-.66-5.13-.83-6.95-.89L9.19,88.26h13.02l44.84-52.04.04-.07Z"/>
    <polygon class="st0" points="184.33 88.26 187.67 88.26 187.67 81.58 193.85 81.58 177.99 53.5 174.53 59.93 184.44 78.41 184.33 88.26"/>
    <path class="st0" d="M64.47,44.6s-.04-.29-.33-.5-.5-.92-.13-1.38,3.84-4.92,4.22-5.59.67-1.04.5-1.63-1.75-2.5-4.13-3.51-7.97-1-8.68-1.04-.58-.5-.08-.96,3.05-2.25,7.47-2.17,6.64,1.42,9.64,3.71,6.68,6.8,7.39,7.47.79,1.29.71,1.92-.5,1.59-.5,1.59l3,3.46s1.46.08,2.25.08,1,.21,1.29.54.71.83,1.25,1.46.5.88.21,2.21-3.05,3.26-3.88,3.71-1.79,1.21-2.34.75-1.38-1.34-1.79-1.79-.88-.92-.88-1.54v-2.92l-3.21-2.71s-5.59,2.21-6.18,2.5-1.04.67-1.54.33-.72-.56-.72-.56l-34,40.21h-6.76l37.23-43.66ZM87.87,58.04l23.96,30.22h6.59l-26.67-33.78s.81-1,1.11-1.4.25-.98-.08-1.21-1.19-.17-2.23.35-4.05,2.75-5.49,4.78c-.77,1.08-.42,1.85-.21,1.91s1.69.14,3.03-.88ZM60.81,64.73v9.6h9.6v-9.6h-9.6ZM73.71,64.73v9.6h9.6v-9.6h-9.6ZM60.81,77.46v9.6h9.6v-9.6h-9.6ZM73.71,77.46v9.6h9.6v-9.6h-9.6ZM160.4,31.4s-.39,1.17-.39,2.64.61,2.48,1.45,3.62,1.61,2.23,1.61,3.06-.64,2.17-2.06,2.17-1.67-1.73-2.34-2.95-2.03-1.31-1.47-.5-.03,1.84.53,3.87,2.25,2.73,4.54,2.73,4.54-2.23,4.54-4.45-.7-3.14-1.42-4.17-1.39-1.59-1.39-3,.81-2.48.81-2.48l-4.4-.53ZM135.56,49.25v3.26h3.26v-3.26h-3.26ZM139.94,49.25v3.26h3.26v-3.26h-3.26ZM135.56,53.5v3.26h3.26v-3.26h-3.26ZM139.94,53.5v3.26h3.26v-3.26h-3.26ZM166.64,76.85v4.27h4.27v-4.27h-4.27ZM172.39,76.85v4.27h4.27v-4.27h-4.27ZM166.64,82.43v4.27h4.27v-4.27h-4.27ZM172.39,82.43v4.27h4.27v-4.27h-4.27ZM160.85,78.88h-8.68l8.18,9.38h-26.54L78.89,18.36l25.21,10.41h17.53v-15.3h-16.81L115.11,0h11.91l32.28,4.7c.21-1.04,1.42-2.59,3.46-2.59s3.84,1.29,3.84,3.46-1.04,2.75-1.04,2.75v12.95h1.93c.64,0,1.16.52,1.16,1.16v.87c0,.65-.52,1.17-1.17,1.17v5.49c0,1.26-1.02,2.28-2.28,2.28h-5.4c-1.25,0-2.26-1.01-2.26-2.26v-5.5h-.03c-.63,0-1.14-.51-1.14-1.14v-.85c0-.67.54-1.21,1.21-1.21h1.54v-7.82h-22.73v20.67l3.26-5.26h4.67l-13.69,24.43h-7.51l7.09,8.12h14.94l6.09-8.76-8.85-16.44,3.26-5.68,11.44,20.62h19.62l-15.86,27.71ZM161.33,5.98c0,.84.68,1.52,1.52,1.52s1.52-.68,1.52-1.52-.68-1.52-1.52-1.52-1.52.68-1.52,1.52ZM161.06,21.29h2.73v-7.82h-2.73v7.82ZM126.19,4.63l29.92,1.63-29.92-4.17v2.55Z"/>
    <polygon class="st0" points="111.59 0 101.87 13.47 97.7 13.47 107.97 0 111.59 0"/>
    <polygon class="st0" points="104.64 0 94.93 13.47 87.73 13.47 98 0 104.64 0"/>
  </g>
  <g>
    <path class="st1" d="M0,102.37h19.7v4.51H5.19v7.07h13.12v4.51H5.19v10.22H0v-26.31Z"/>
    <path class="st1" d="M23.08,102.37h5.19v26.31h-5.19v-26.31Z"/>
    <path class="st1" d="M33.3,102.37h4.62l12.63,17.89v-17.89h5.07v26.31h-4.62l-12.63-17.89v17.89h-5.07v-26.31Z"/>
    <path class="st1" d="M61.3,127.7c-.68-.65-1.02-1.5-1.02-2.56v-22.78h20.07v4.51h-14.88v6.09h13.76v4.51h-13.76v6.69h14.88v4.51h-16.43c-1.08,0-1.95-.33-2.63-.98Z"/>
    <path class="st1" d="M95.73,127.7c-.68-.65-1.02-1.5-1.02-2.56v-22.78h13.08c2.38,0,4.29.56,5.73,1.69,1.44,1.13,2.16,2.64,2.16,4.55v1.88c0,.83-.21,1.62-.62,2.37-.41.75-1,1.37-1.75,1.84v.04c1.2.43,2.17,1.12,2.91,2.07.74.95,1.11,2.02,1.11,3.19v1.95c0,2.05-.75,3.69-2.24,4.9s-3.5,1.82-6.03,1.82h-10.71c-1.08,0-1.95-.33-2.63-.98ZM107.79,113.27c.8,0,1.45-.26,1.95-.77.5-.51.75-1.2.75-2.05v-1.28c0-.7-.26-1.26-.79-1.67-.53-.41-1.23-.62-2.11-.62h-7.7v6.39h7.89ZM108.7,124.16c1.1,0,1.95-.22,2.56-.66.6-.44.9-1.06.9-1.86v-1.65c0-.73-.26-1.32-.79-1.77-.53-.45-1.23-.68-2.1-.68h-9.36v6.61h8.79Z"/>
    <path class="st1" d="M124.93,127.79c-1.4-.79-2.49-1.9-3.27-3.33-.78-1.43-1.17-3.08-1.17-4.96v-17.14h5.19v16.99c0,1.5.38,2.72,1.15,3.65.76.93,1.76,1.39,2.99,1.39h3.98c1.25,0,2.27-.46,3.04-1.39.78-.93,1.17-2.14,1.17-3.65v-16.99h5.19v17.14c0,1.88-.39,3.53-1.17,4.96s-1.88,2.54-3.31,3.33-3.07,1.18-4.92,1.18h-3.98c-1.85,0-3.48-.39-4.89-1.18Z"/>
    <path class="st1" d="M148.08,102.37h5.19v26.31h-5.19v-26.31Z"/>
    <path class="st1" d="M159.3,127.72c-.67-.64-1-1.49-1-2.54v-22.81h5.19v21.8h14.28v4.51h-15.82c-1.1,0-1.99-.32-2.65-.96Z"/>
    <path class="st1" d="M181.42,127.7c-.68-.65-1.02-1.5-1.02-2.56v-22.78h12.55c2,0,3.76.38,5.28,1.13,1.52.75,2.69,1.82,3.53,3.19.84,1.38,1.26,2.97,1.26,4.77v7.37c0,3.23-.84,5.68-2.52,7.35-1.68,1.67-4.15,2.5-7.4,2.5h-9.06c-1.08,0-1.95-.33-2.63-.98ZM192.96,124.09c1.6,0,2.82-.46,3.65-1.39s1.24-2.29,1.24-4.1v-6.92c0-1.43-.46-2.57-1.39-3.44-.93-.86-2.14-1.3-3.65-1.3h-7.22v17.14h7.37Z"/>
  </g>
  <g>
    <path class="st1" d="M3.72,156.69c-1.03-.58-1.82-1.4-2.38-2.46-.56-1.06-.84-2.29-.84-3.67v-4.84c0-1.39.28-2.61.86-3.67.57-1.06,1.38-1.88,2.42-2.46s2.25-.87,3.62-.87h2.79c1.32,0,2.47.28,3.47.84s1.78,1.35,2.33,2.36c.55,1.01.83,2.18.83,3.51h-3.58c0-1.05-.28-1.9-.84-2.54s-1.3-.96-2.21-.96h-2.79c-.98,0-1.77.36-2.37,1.09-.6.73-.9,1.68-.9,2.86v4.53c0,1.18.29,2.13.87,2.86.58.73,1.34,1.09,2.29,1.09h2.84c.93,0,1.69-.36,2.28-1.08.59-.72.88-1.67.88-2.84h3.58c0,1.42-.28,2.67-.84,3.75s-1.35,1.91-2.37,2.5c-1.02.59-2.19.88-3.53.88h-2.84c-1.35,0-2.54-.29-3.57-.87Z"/>
    <path class="st1" d="M21.96,156.67c-1.06-.59-1.89-1.41-2.47-2.47-.59-1.06-.88-2.29-.88-3.7v-4.74c0-1.4.29-2.64.88-3.7.59-1.06,1.41-1.89,2.47-2.47,1.06-.59,2.29-.88,3.67-.88h2.79c1.39,0,2.61.29,3.67.88,1.06.59,1.89,1.41,2.47,2.47.59,1.06.88,2.29.88,3.7v4.74c0,1.4-.29,2.64-.88,3.7-.59,1.06-1.41,1.89-2.47,2.47-1.06.59-2.29.88-3.67.88h-2.79c-1.39,0-2.61-.29-3.67-.88ZM28.42,154.35c1.02,0,1.84-.37,2.46-1.11s.93-1.7.93-2.9v-4.42c0-1.19-.31-2.16-.93-2.9s-1.44-1.11-2.46-1.11h-2.79c-1.02,0-1.84.37-2.46,1.11s-.93,1.7-.93,2.9v4.42c0,1.19.31,2.16.93,2.9s1.44,1.11,2.46,1.11h2.79Z"/>
    <path class="st1" d="M38.19,138.92h3.24l8.84,12.53v-12.53h3.55v18.43h-3.24l-8.85-12.53v12.53h-3.55v-18.43Z"/>
    <path class="st1" d="M58.08,155.94c-1.09-1.08-1.63-2.58-1.63-4.51h3.58c0,.91.23,1.63.7,2.14.47.52,1.11.78,1.93.78h2.92c.77,0,1.4-.16,1.88-.49.48-.32.72-.76.72-1.3v-.9c0-.86-.63-1.4-1.9-1.61l-4.84-.82c-1.58-.26-2.78-.77-3.59-1.51-.82-.74-1.22-1.7-1.22-2.86v-1.47c0-.93.25-1.75.75-2.46.5-.71,1.21-1.26,2.13-1.65.92-.39,1.99-.58,3.2-.58h2.97c1.14,0,2.15.24,3.03.71.88.47,1.56,1.14,2.04,1.99.48.85.72,1.84.72,2.96h-3.58c0-.74-.2-1.33-.61-1.78-.4-.45-.94-.67-1.61-.67h-2.97c-.74,0-1.33.16-1.78.47-.45.32-.67.74-.67,1.26v.71c0,.88.61,1.42,1.82,1.63l4.82.84c1.6.28,2.82.78,3.66,1.49.84.71,1.26,1.63,1.26,2.75v1.74c0,.93-.26,1.75-.78,2.47s-1.24,1.28-2.17,1.67-2.01.59-3.24.59h-3.03c-1.93,0-3.44-.54-4.53-1.62Z"/>
    <path class="st1" d="M78.46,142.08h-5.84v-3.16h15.32v3.16h-5.84v15.27h-3.63v-15.27Z"/>
    <path class="st1" d="M89.88,138.92h9.79c1.6,0,2.88.43,3.86,1.29.97.86,1.46,1.99,1.46,3.4v1.84c0,.91-.26,1.71-.78,2.38s-1.27,1.19-2.25,1.54v.05c.56.37.99.79,1.28,1.26.29.47.57,1.13.86,1.97l1.47,4.69h-3.76l-1.39-4.37c-.23-.75-.54-1.32-.95-1.68s-.9-.55-1.5-.55h-4.45v6.61h-3.63v-18.43ZM98.99,147.61c.74,0,1.32-.2,1.74-.59.42-.39.63-.91.63-1.54v-1.71c0-.51-.16-.92-.47-1.22s-.74-.46-1.26-.46h-6.11v5.53h5.48Z"/>
    <path class="st1" d="M110.73,156.73c-.98-.55-1.75-1.33-2.29-2.33-.54-1-.82-2.16-.82-3.47v-12h3.63v11.9c0,1.05.27,1.91.8,2.55.53.65,1.23.97,2.09.97h2.79c.88,0,1.59-.33,2.13-.97.54-.65.82-1.5.82-2.55v-11.9h3.63v12c0,1.32-.27,2.47-.82,3.47-.54,1-1.32,1.78-2.32,2.33-1,.55-2.15.83-3.45.83h-2.79c-1.3,0-2.44-.28-3.42-.83Z"/>
    <path class="st1" d="M129.38,156.69c-1.03-.58-1.82-1.4-2.38-2.46-.56-1.06-.84-2.29-.84-3.67v-4.84c0-1.39.28-2.61.86-3.67.57-1.06,1.38-1.88,2.42-2.46s2.25-.87,3.62-.87h2.79c1.32,0,2.47.28,3.47.84s1.78,1.35,2.33,2.36c.55,1.01.83,2.18.83,3.51h-3.58c0-1.05-.28-1.9-.84-2.54s-1.3-.96-2.21-.96h-2.79c-.98,0-1.77.36-2.37,1.09-.6.73-.9,1.68-.9,2.86v4.53c0,1.18.29,2.13.87,2.86.58.73,1.34,1.09,2.29,1.09h2.84c.93,0,1.69-.36,2.28-1.08.59-.72.88-1.67.88-2.84h3.58c0,1.42-.28,2.67-.84,3.75s-1.35,1.91-2.37,2.5c-1.02.59-2.19.88-3.53.88h-2.84c-1.35,0-2.54-.29-3.57-.87Z"/>
    <path class="st1" d="M149,142.08h-5.84v-3.16h15.32v3.16h-5.84v15.27h-3.63v-15.27Z"/>
    <path class="st1" d="M160.69,138.92h3.63v18.43h-3.63v-18.43Z"/>
    <path class="st1" d="M170.68,156.67c-1.06-.59-1.89-1.41-2.47-2.47-.59-1.06-.88-2.29-.88-3.7v-4.74c0-1.4.29-2.64.88-3.7.59-1.06,1.41-1.89,2.47-2.47,1.06-.59,2.29-.88,3.67-.88h2.79c1.39,0,2.61.29,3.67.88,1.06.59,1.89,1.41,2.47,2.47.59,1.06.88,2.29.88,3.7v4.74c0,1.4-.29,2.64-.88,3.7-.59,1.06-1.41,1.89-2.47,2.47-1.06.59-2.29.88-3.67.88h-2.79c-1.39,0-2.61-.29-3.67-.88ZM177.14,154.35c1.02,0,1.84-.37,2.46-1.11s.93-1.7.93-2.9v-4.42c0-1.19-.31-2.16-.93-2.9s-1.44-1.11-2.46-1.11h-2.79c-1.02,0-1.84.37-2.46,1.11s-.93,1.7-.93,2.9v4.42c0,1.19.31,2.16.93,2.9s1.44,1.11,2.46,1.11h2.79Z"/>
    <path class="st1" d="M186.91,138.92h3.24l8.84,12.53v-12.53h3.55v18.43h-3.24l-8.85-12.53v12.53h-3.55v-18.43Z"/>
  </g>
</svg>